REM DIRINDEX 1\3,1\2\4,1\2\5,1\2\6
REM DIRNAME folder01,folder02,folder03,folder04,folder05,folder06
TITLE ""
FILE "117.mp3" MP3
  TRACK 01 AUDIO
    TITLE "4:cjc137_4833"
    INDEX 01 00:00:00
  TRACK 02 AUDIO
    TITLE "0:"
    INDEX 01 00:01:44
  TRACK 03 AUDIO
    TITLE "6:cjc137_4834"
    INDEX 01 00:01:56
  TRACK 04 AUDIO
    TITLE "0:"
    INDEX 01 00:03:23
  TRACK 05 AUDIO
    TITLE "5:cjc137_4835"
    INDEX 01 00:03:35
  TRACK 06 AUDIO
    TITLE "0:"
    INDEX 01 00:05:03
  TRACK 07 AUDIO
    TITLE "4:cjc137_4836"
    INDEX 01 00:06:12
  TRACK 08 AUDIO
    TITLE "0:"
    INDEX 01 00:07:31
  TRACK 09 AUDIO
    TITLE "6:cjc137_4837"
    INDEX 01 00:07:37
  TRACK 10 AUDIO
    TITLE "0:"
    INDEX 01 00:08:52
  TRACK 11 AUDIO
    TITLE "5:cjc137_4838"
    INDEX 01 00:08:62
  TRACK 12 AUDIO
    TITLE "0:"
    INDEX 01 00:10:06
  TRACK 13 AUDIO
    TITLE "4:cjc137_4839"
    INDEX 01 00:11:13
  TRACK 14 AUDIO
    TITLE "0:"
    INDEX 01 00:12:24
  TRACK 15 AUDIO
    TITLE "6:cjc137_4840"
    INDEX 01 00:12:30
  TRACK 16 AUDIO
    TITLE "0:"
    INDEX 01 00:13:30
  TRACK 17 AUDIO
    TITLE "5:cjc137_4841"
    INDEX 01 00:13:35
  TRACK 18 AUDIO
    TITLE "0:"
    INDEX 01 00:14:45
  TRACK 19 AUDIO
    TITLE "4:cjc137_4842"
    INDEX 01 00:15:54
  TRACK 20 AUDIO
    TITLE "0:"
    INDEX 01 00:17:10
  TRACK 21 AUDIO
    TITLE "6:cjc137_4843"
    INDEX 01 00:17:18
  TRACK 22 AUDIO
    TITLE "0:"
    INDEX 01 00:18:37
  TRACK 23 AUDIO
    TITLE "5:cjc137_4844"
    INDEX 01 00:18:42
  TRACK 24 AUDIO
    TITLE "0:"
    INDEX 01 00:20:00
  TRACK 25 AUDIO
    TITLE "4:cjc137_4845"
    INDEX 01 00:21:08
  TRACK 26 AUDIO
    TITLE "0:"
    INDEX 01 00:22:27
  TRACK 27 AUDIO
    TITLE "6:cjc137_4846"
    INDEX 01 00:22:34
  TRACK 28 AUDIO
    TITLE "0:"
    INDEX 01 00:23:32
  TRACK 29 AUDIO
    TITLE "5:cjc137_4847"
    INDEX 01 00:23:38
  TRACK 30 AUDIO
    TITLE "0:"
    INDEX 01 00:24:59
  TRACK 31 AUDIO
    TITLE "4:cjc137_4848"
    INDEX 01 00:25:72
  TRACK 32 AUDIO
    TITLE "0:"
    INDEX 01 00:27:20
  TRACK 33 AUDIO
    TITLE "6:cjc137_4849"
    INDEX 01 00:27:24
  TRACK 34 AUDIO
    TITLE "0:"
    INDEX 01 00:28:25
  TRACK 35 AUDIO
    TITLE "5:cjc137_4850"
    INDEX 01 00:28:39
  TRACK 36 AUDIO
    TITLE "0:"
    INDEX 01 00:29:60
  TRACK 37 AUDIO
    TITLE "4:cjc137_4851"
    INDEX 01 00:30:67
  TRACK 38 AUDIO
    TITLE "0:"
    INDEX 01 00:32:48
  TRACK 39 AUDIO
    TITLE "6:cjc137_4852"
    INDEX 01 00:32:54
  TRACK 40 AUDIO
    TITLE "0:"
    INDEX 01 00:33:60
  TRACK 41 AUDIO
    TITLE "5:cjc137_4853"
    INDEX 01 00:33:66
  TRACK 42 AUDIO
    TITLE "0:"
    INDEX 01 00:35:45
  TRACK 43 AUDIO
    TITLE "4:cjc137_4854"
    INDEX 01 00:36:54
  TRACK 44 AUDIO
    TITLE "0:"
    INDEX 01 00:38:04
  TRACK 45 AUDIO
    TITLE "6:cjc137_4855"
    INDEX 01 00:38:08
  TRACK 46 AUDIO
    TITLE "0:"
    INDEX 01 00:39:21
  TRACK 47 AUDIO
    TITLE "5:cjc137_4856"
    INDEX 01 00:39:27
  TRACK 48 AUDIO
    TITLE "0:"
    INDEX 01 00:40:48
  TRACK 49 AUDIO
    TITLE "4:cjc137_4857"
    INDEX 01 00:41:55
  TRACK 50 AUDIO
    TITLE "0:"
    INDEX 01 00:43:05
  TRACK 51 AUDIO
    TITLE "6:cjc137_4858"
    INDEX 01 00:43:09
  TRACK 52 AUDIO
    TITLE "0:"
    INDEX 01 00:44:48
  TRACK 53 AUDIO
    TITLE "5:cjc137_4859"
    INDEX 01 00:44:54
  TRACK 54 AUDIO
    TITLE "0:"
    INDEX 01 00:46:02
  TRACK 55 AUDIO
    TITLE "4:cjc137_4860"
    INDEX 01 00:47:09
  TRACK 56 AUDIO
    TITLE "0:"
    INDEX 01 00:48:26
  TRACK 57 AUDIO
    TITLE "6:cjc137_4861"
    INDEX 01 00:48:32
  TRACK 58 AUDIO
    TITLE "0:"
    INDEX 01 00:49:35
  TRACK 59 AUDIO
    TITLE "5:cjc137_4862"
    INDEX 01 00:49:39
  TRACK 60 AUDIO
    TITLE "0:"
    INDEX 01 00:50:56
  TRACK 61 AUDIO
    TITLE "4:cjc137_4863"
    INDEX 01 00:51:62
  TRACK 62 AUDIO
    TITLE "0:"
    INDEX 01 00:53:31
  TRACK 63 AUDIO
    TITLE "6:cjc137_4864"
    INDEX 01 00:53:33
  TRACK 64 AUDIO
    TITLE "0:"
    INDEX 01 00:54:46
  TRACK 65 AUDIO
    TITLE "5:cjc137_4865"
    INDEX 01 00:54:50
  TRACK 66 AUDIO
    TITLE "0:"
    INDEX 01 00:56:16
  TRACK 67 AUDIO
    TITLE "4:cjc137_4866"
    INDEX 01 00:57:23
  TRACK 68 AUDIO
    TITLE "0:"
    INDEX 01 00:58:34
  TRACK 69 AUDIO
    TITLE "6:cjc137_4867"
    INDEX 01 00:58:40
  TRACK 70 AUDIO
    TITLE "0:"
    INDEX 01 00:59:57
  TRACK 71 AUDIO
    TITLE "5:cjc137_4868"
    INDEX 01 00:59:61
  TRACK 72 AUDIO
    TITLE "0:"
    INDEX 01 01:00:74
  TRACK 73 AUDIO
    TITLE "4:cjc137_4869"
    INDEX 01 01:02:05
  TRACK 74 AUDIO
    TITLE "0:"
    INDEX 01 01:03:14
  TRACK 75 AUDIO
    TITLE "6:cjc137_4870"
    INDEX 01 01:03:20
  TRACK 76 AUDIO
    TITLE "0:"
    INDEX 01 01:04:48
  TRACK 77 AUDIO
    TITLE "5:cjc137_4871"
    INDEX 01 01:04:52
  TRACK 78 AUDIO
    TITLE "0:"
    INDEX 01 01:05:62
  TRACK 79 AUDIO
    TITLE "4:cjc137_4872"
    INDEX 01 01:06:71
  TRACK 80 AUDIO
    TITLE "0:"
    INDEX 01 01:08:38
  TRACK 81 AUDIO
    TITLE "6:cjc137_4873"
    INDEX 01 01:08:44
  TRACK 82 AUDIO
    TITLE "0:"
    INDEX 01 01:10:12
  TRACK 83 AUDIO
    TITLE "5:cjc137_4874"
    INDEX 01 01:10:20
  TRACK 84 AUDIO
    TITLE "0:"
    INDEX 01 01:11:62
